<?xml version="1.0" encoding="UTF-8" standalone="no"?>
<svg
   xmlns:dc="http://purl.org/dc/elements/1.1/"
   xmlns:cc="http://creativecommons.org/ns#"
   xmlns:rdf="http://www.w3.org/1999/02/22-rdf-syntax-ns#"
   xmlns:svg="http://www.w3.org/2000/svg"
   xmlns="http://www.w3.org/2000/svg"
   xmlns:xlink="http://www.w3.org/1999/xlink"
   width="330"
   height="661"
   viewBox="0 0 87.3125 174.8896"
   version="1.1"
   id="svg8">
  <defs
     id="defs2">
    <linearGradient
       id="linearGradient821">
      <stop
         style="stop-color:#000000;stop-opacity:1;"
         offset="0"
         id="stop817" />
      <stop
         style="stop-color:#000000;stop-opacity:0;"
         offset="1"
         id="stop819" />
    </linearGradient>
    <clipPath
       clipPathUnits="userSpaceOnUse"
       id="clipPath4960">
      <path
         style="color:#000000;display:inline;overflow:visible;visibility:visible;opacity:1;vector-effect:none;fill:#ebebeb;fill-opacity:1;fill-rule:nonzero;stroke:none;stroke-width:1.2765;stroke-linecap:round;stroke-linejoin:miter;stroke-miterlimit:4;stroke-dasharray:none;stroke-dashoffset:0;stroke-opacity:1;marker:none;enable-background:accumulate"
         d="m 56.734381,2.01367 c -29.678552,0 -53.5722709,23.893694 -53.5722709,53.572268 V 666.02928 c 0,29.67855 23.8937189,53.57223 53.5722709,53.57223 H 303.26562 c 29.67859,0 53.57227,-23.89368 53.57227,-53.57223 V 55.585938 c 0,-29.678574 -23.89368,-53.572268 -53.57227,-53.572268 z M 55.310558,5.9921857 H 304.68944 c 26.58218,0 47.98243,21.3983043 47.98243,47.9804723 V 668.20893 c 0,26.58217 -21.40025,47.98246 -47.98243,47.98246 H 55.310558 c -26.582175,0 -47.9824257,-21.40029 -47.9824257,-47.98246 V 53.972658 c 0,-26.582168 21.4002507,-47.9804723 47.9824257,-47.9804723 z"
         id="path4962" />
    </clipPath>
    <clipPath
       clipPathUnits="userSpaceOnUse"
       id="clipPath5059">
      <path
         style="color:#000000;display:inline;overflow:visible;visibility:visible;opacity:1;vector-effect:none;fill:#ebebeb;fill-opacity:1;fill-rule:nonzero;stroke:none;stroke-width:1.2765;stroke-linecap:round;stroke-linejoin:miter;stroke-miterlimit:4;stroke-dasharray:none;stroke-dashoffset:0;stroke-opacity:1;marker:none;enable-background:accumulate"
         d="m 56.734381,2.01367 c -29.678554,0 -53.5722728,23.893694 -53.5722728,53.572268 V 666.02928 c 0,29.67855 23.8937188,53.57223 53.5722728,53.57223 H 303.26562 c 29.67859,0 53.57227,-23.89368 53.57227,-53.57223 V 55.585938 c 0,-29.678574 -23.89368,-53.572268 -53.57227,-53.572268 z M 55.310558,5.9921857 H 304.68945 c 26.58217,0 47.98242,21.3983043 47.98242,47.9804723 V 668.20893 c 0,26.58217 -21.40025,47.98246 -47.98242,47.98246 H 55.310558 c -26.582177,0 -47.9824276,-21.40029 -47.9824276,-47.98246 V 53.972658 c 0,-26.582168 21.4002506,-47.9804723 47.9824276,-47.9804723 z"
         id="path5061" />
    </clipPath>
    <clipPath
       clipPathUnits="userSpaceOnUse"
       id="clipPath5401">
      <rect
         style="color:#000000;display:inline;overflow:visible;visibility:visible;opacity:1;vector-effect:none;fill:#000000;fill-opacity:1;fill-rule:nonzero;stroke:none;stroke-width:0.0264583;stroke-linecap:round;stroke-linejoin:miter;stroke-miterlimit:4;stroke-dasharray:none;stroke-dashoffset:0;stroke-opacity:1;marker:none;enable-background:accumulate"
         id="rect5403"
         width="4.3765388"
         height="7.4167299"
         x="-13.8777"
         y="25.856594"
         ry="0.45101735" />
    </clipPath>
    <clipPath
       clipPathUnits="userSpaceOnUse"
       id="clipPath5589">
      <path
         id="path5591"
         d="M 0.45113526,39.688017 C 0.20127166,39.688017 0,39.888773 0,40.138637 v 12.912612 c 0,0.249864 0.20127166,0.451136 0.45113526,0.451136 H 3.9253421 c 0.2498635,0 0.4511352,-0.201272 0.4511352,-0.451136 V 40.138637 c 0,-0.249864 -0.2012717,-0.45062 -0.4511352,-0.45062 z"
         style="color:#000000;display:inline;overflow:visible;visibility:visible;opacity:1;vector-effect:none;fill:#000000;fill-opacity:1;fill-rule:nonzero;stroke:none;stroke-width:0.0264583;stroke-linecap:round;stroke-linejoin:miter;stroke-miterlimit:4;stroke-dasharray:none;stroke-dashoffset:0;stroke-opacity:1;marker:none;enable-background:accumulate" />
    </clipPath>
    <clipPath
       clipPathUnits="userSpaceOnUse"
       id="clipPath5589-7">
      <path
         id="path5591-5"
         d="M 0.45113526,39.688017 C 0.20127166,39.688017 0,39.888773 0,40.138637 v 12.912612 c 0,0.249864 0.20127166,0.451136 0.45113526,0.451136 H 3.9253421 c 0.2498635,0 0.4511352,-0.201272 0.4511352,-0.451136 V 40.138637 c 0,-0.249864 -0.2012717,-0.45062 -0.4511352,-0.45062 z"
         style="color:#000000;display:inline;overflow:visible;visibility:visible;opacity:1;vector-effect:none;fill:#000000;fill-opacity:1;fill-rule:nonzero;stroke:none;stroke-width:0.0264583;stroke-linecap:round;stroke-linejoin:miter;stroke-miterlimit:4;stroke-dasharray:none;stroke-dashoffset:0;stroke-opacity:1;marker:none;enable-background:accumulate" />
    </clipPath>
    <clipPath
       clipPathUnits="userSpaceOnUse"
       id="clipPath5738">
      <path
         id="path5740"
         d="m 0.45113544,39.688016 c -0.24986192,0 -0.4511331182662,0.200755 -0.4511331182662,0.450619 v 20.944606 c 0,0.249864 0.2012711982662,0.451135 0.4511331182662,0.451135 H 3.9253423 c 0.2498645,0 0.4511357,-0.201271 0.4511357,-0.451135 V 40.138635 c 0,-0.249864 -0.2012712,-0.450619 -0.4511357,-0.450619 z"
         style="color:#000000;display:inline;overflow:visible;visibility:visible;opacity:1;vector-effect:none;fill:#000000;fill-opacity:1;fill-rule:nonzero;stroke:none;stroke-width:0.0264583;stroke-linecap:round;stroke-linejoin:miter;stroke-miterlimit:4;stroke-dasharray:none;stroke-dashoffset:0;stroke-opacity:1;marker:none;enable-background:accumulate" />
    </clipPath>
    <clipPath
       clipPathUnits="userSpaceOnUse"
       id="clipPath922">
      <rect
         style="opacity:1;vector-effect:none;fill:#474747;fill-opacity:1;fill-rule:nonzero;stroke:none;stroke-width:2.4065;stroke-linecap:butt;stroke-linejoin:miter;stroke-miterlimit:4;stroke-dasharray:none;stroke-dashoffset:0;stroke-opacity:1"
         id="rect924"
         width="77.201637"
         height="33.545391"
         x="-67.752235"
         y="-14.211905" />
    </clipPath>
    <clipPath
       clipPathUnits="userSpaceOnUse"
       id="clipPath972">
      <rect
         style="opacity:1;vector-effect:none;fill:#29ec68;fill-opacity:0.658879;fill-rule:nonzero;stroke:none;stroke-width:38.3451;stroke-linecap:butt;stroke-linejoin:miter;stroke-miterlimit:4;stroke-dasharray:none;stroke-dashoffset:0;stroke-opacity:1"
         id="rect974"
         width="253.12003"
         height="506.59415"
         x="-527.82013"
         y="-172.67062" />
    </clipPath>
    <mask
       maskUnits="userSpaceOnUse"
       id="mask1062">
      <path
         style="color:#000000;display:inline;overflow:visible;visibility:visible;opacity:1;vector-effect:none;fill:none;fill-opacity:1;fill-rule:nonzero;stroke:#ffffff;stroke-width:0.0529167;stroke-linecap:round;stroke-linejoin:miter;stroke-miterlimit:4;stroke-dasharray:none;stroke-dashoffset:0;stroke-opacity:1;marker:none;enable-background:accumulate"
         d="m 42.746746,7.2620904 c -0.399166,0 -0.72037,0.3212029 -0.72037,0.7203695 0,0.3991665 0.321204,0.7203694 0.72037,0.7203694 h 9.921876 c 0.399166,0 0.72037,-0.3212029 0.72037,-0.7203694 0,-0.3991666 -0.321204,-0.7203695 -0.72037,-0.7203695 z"
         id="path1064" />
    </mask>
    <pattern
       patternUnits="userSpaceOnUse"
       width="1.171848"
       height="1.1718804"
       patternTransform="matrix(0.26458334,0,0,0.26458334,-76.445686,-5.7812643)"
       id="pattern2874">
      <g
         transform="matrix(3.7795274,0,0,3.7795274,288.92857,-26.720982)"
         id="g2781">
        <rect
           style="opacity:1;vector-effect:none;fill:#212121;fill-opacity:1;fill-rule:nonzero;stroke:none;stroke-width:0.0365544;stroke-linecap:butt;stroke-linejoin:miter;stroke-miterlimit:4;stroke-dasharray:none;stroke-dashoffset:0;stroke-opacity:1"
           id="rect2730"
           width="0.15502979"
           height="0.15502979"
           x="-76.445686"
           y="7.0699267" />
        <rect
           style="display:inline;opacity:1;vector-effect:none;fill:#212121;fill-opacity:1;fill-rule:nonzero;stroke:none;stroke-width:0.0365544;stroke-linecap:butt;stroke-linejoin:miter;stroke-miterlimit:4;stroke-dasharray:none;stroke-dashoffset:0;stroke-opacity:1"
           id="rect2730-5"
           width="0.15502979"
           height="0.15502979"
           x="-76.290665"
           y="7.224957" />
        <rect
           style="display:inline;opacity:1;vector-effect:none;fill:#060606;fill-opacity:1;fill-rule:nonzero;stroke:none;stroke-width:0.0365544;stroke-linecap:butt;stroke-linejoin:miter;stroke-miterlimit:4;stroke-dasharray:none;stroke-dashoffset:0;stroke-opacity:1"
           id="rect2730-5-5"
           width="0.15502979"
           height="0.15502979"
           x="-76.290665"
           y="7.0699267" />
        <rect
           style="display:inline;opacity:1;vector-effect:none;fill:#060606;fill-opacity:1;fill-rule:nonzero;stroke:none;stroke-width:0.0365544;stroke-linecap:butt;stroke-linejoin:miter;stroke-miterlimit:4;stroke-dasharray:none;stroke-dashoffset:0;stroke-opacity:1"
           id="rect2730-5-5-0"
           width="0.15502979"
           height="0.15502979"
           x="-76.445686"
           y="7.224957" />
      </g>
    </pattern>
    <clipPath
       clipPathUnits="userSpaceOnUse"
       id="clipPath5738-4">
      <path
         id="path5740-9"
         d="m 0.45113544,39.688016 c -0.24986192,0 -0.4511331182662,0.200755 -0.4511331182662,0.450619 v 20.944606 c 0,0.249864 0.2012711982662,0.451135 0.4511331182662,0.451135 H 3.9253423 c 0.2498645,0 0.4511357,-0.201271 0.4511357,-0.451135 V 40.138635 c 0,-0.249864 -0.2012712,-0.450619 -0.4511357,-0.450619 z"
         style="color:#000000;display:inline;overflow:visible;visibility:visible;opacity:1;vector-effect:none;fill:#000000;fill-opacity:1;fill-rule:nonzero;stroke:none;stroke-width:0.0264583;stroke-linecap:round;stroke-linejoin:miter;stroke-miterlimit:4;stroke-dasharray:none;stroke-dashoffset:0;stroke-opacity:1;marker:none;enable-background:accumulate" />
    </clipPath>
    <clipPath
       clipPathUnits="userSpaceOnUse"
       id="clipPath5401-9">
      <rect
         style="color:#000000;display:inline;overflow:visible;visibility:visible;opacity:1;vector-effect:none;fill:#000000;fill-opacity:1;fill-rule:nonzero;stroke:none;stroke-width:0.0264583;stroke-linecap:round;stroke-linejoin:miter;stroke-miterlimit:4;stroke-dasharray:none;stroke-dashoffset:0;stroke-opacity:1;marker:none;enable-background:accumulate"
         id="rect5403-9"
         width="4.3765388"
         height="7.4167299"
         x="-13.8777"
         y="25.856594"
         ry="0.45101735" />
    </clipPath>
    <clipPath
       clipPathUnits="userSpaceOnUse"
       id="clipPath5589-3">
      <path
         id="path5591-6"
         d="M 0.45113526,39.688017 C 0.20127166,39.688017 0,39.888773 0,40.138637 v 12.912612 c 0,0.249864 0.20127166,0.451136 0.45113526,0.451136 H 3.9253421 c 0.2498635,0 0.4511352,-0.201272 0.4511352,-0.451136 V 40.138637 c 0,-0.249864 -0.2012717,-0.45062 -0.4511352,-0.45062 z"
         style="color:#000000;display:inline;overflow:visible;visibility:visible;opacity:1;vector-effect:none;fill:#000000;fill-opacity:1;fill-rule:nonzero;stroke:none;stroke-width:0.0264583;stroke-linecap:round;stroke-linejoin:miter;stroke-miterlimit:4;stroke-dasharray:none;stroke-dashoffset:0;stroke-opacity:1;marker:none;enable-background:accumulate" />
    </clipPath>
    <clipPath
       clipPathUnits="userSpaceOnUse"
       id="clipPath5589-7-8">
      <path
         id="path5591-5-3"
         d="M 0.45113526,39.688017 C 0.20127166,39.688017 0,39.888773 0,40.138637 v 12.912612 c 0,0.249864 0.20127166,0.451136 0.45113526,0.451136 H 3.9253421 c 0.2498635,0 0.4511352,-0.201272 0.4511352,-0.451136 V 40.138637 c 0,-0.249864 -0.2012717,-0.45062 -0.4511352,-0.45062 z"
         style="color:#000000;display:inline;overflow:visible;visibility:visible;opacity:1;vector-effect:none;fill:#000000;fill-opacity:1;fill-rule:nonzero;stroke:none;stroke-width:0.0264583;stroke-linecap:round;stroke-linejoin:miter;stroke-miterlimit:4;stroke-dasharray:none;stroke-dashoffset:0;stroke-opacity:1;marker:none;enable-background:accumulate" />
    </clipPath>
    <clipPath
       clipPathUnits="userSpaceOnUse"
       id="clipPath4960-5">
      <path
         style="color:#000000;display:inline;overflow:visible;visibility:visible;opacity:1;vector-effect:none;fill:#ebebeb;fill-opacity:1;fill-rule:nonzero;stroke:none;stroke-width:1.2765;stroke-linecap:round;stroke-linejoin:miter;stroke-miterlimit:4;stroke-dasharray:none;stroke-dashoffset:0;stroke-opacity:1;marker:none;enable-background:accumulate"
         d="m 56.734381,2.01367 c -29.678552,0 -53.5722709,23.893694 -53.5722709,53.572268 V 666.02928 c 0,29.67855 23.8937189,53.57223 53.5722709,53.57223 H 303.26562 c 29.67859,0 53.57227,-23.89368 53.57227,-53.57223 V 55.585938 c 0,-29.678574 -23.89368,-53.572268 -53.57227,-53.572268 z M 55.310558,5.9921857 H 304.68944 c 26.58218,0 47.98243,21.3983043 47.98243,47.9804723 V 668.20893 c 0,26.58217 -21.40025,47.98246 -47.98243,47.98246 H 55.310558 c -26.582175,0 -47.9824257,-21.40029 -47.9824257,-47.98246 V 53.972658 c 0,-26.582168 21.4002507,-47.9804723 47.9824257,-47.9804723 z"
         id="path4962-4" />
    </clipPath>
    <pattern
       patternUnits="userSpaceOnUse"
       width="1.171848"
       height="1.1718804"
       patternTransform="matrix(0.26458334,0,0,0.26458334,-76.445686,-5.7812643)"
       id="pattern2874-7">
      <g
         transform="matrix(3.7795274,0,0,3.7795274,288.92857,-26.720982)"
         id="g2781-1">
        <rect
           style="opacity:1;vector-effect:none;fill:#212121;fill-opacity:1;fill-rule:nonzero;stroke:none;stroke-width:0.0365544;stroke-linecap:butt;stroke-linejoin:miter;stroke-miterlimit:4;stroke-dasharray:none;stroke-dashoffset:0;stroke-opacity:1"
           id="rect2730-3"
           width="0.15502979"
           height="0.15502979"
           x="-76.445686"
           y="7.0699267" />
        <rect
           style="display:inline;opacity:1;vector-effect:none;fill:#212121;fill-opacity:1;fill-rule:nonzero;stroke:none;stroke-width:0.0365544;stroke-linecap:butt;stroke-linejoin:miter;stroke-miterlimit:4;stroke-dasharray:none;stroke-dashoffset:0;stroke-opacity:1"
           id="rect2730-5-8"
           width="0.15502979"
           height="0.15502979"
           x="-76.290665"
           y="7.224957" />
        <rect
           style="display:inline;opacity:1;vector-effect:none;fill:#060606;fill-opacity:1;fill-rule:nonzero;stroke:none;stroke-width:0.0365544;stroke-linecap:butt;stroke-linejoin:miter;stroke-miterlimit:4;stroke-dasharray:none;stroke-dashoffset:0;stroke-opacity:1"
           id="rect2730-5-5-1"
           width="0.15502979"
           height="0.15502979"
           x="-76.290665"
           y="7.0699267" />
        <rect
           style="display:inline;opacity:1;vector-effect:none;fill:#060606;fill-opacity:1;fill-rule:nonzero;stroke:none;stroke-width:0.0365544;stroke-linecap:butt;stroke-linejoin:miter;stroke-miterlimit:4;stroke-dasharray:none;stroke-dashoffset:0;stroke-opacity:1"
           id="rect2730-5-5-0-1"
           width="0.15502979"
           height="0.15502979"
           x="-76.445686"
           y="7.224957" />
      </g>
    </pattern>
    <clipPath
       clipPathUnits="userSpaceOnUse"
       id="clipPath948">
      <rect
         style="opacity:1;vector-effect:none;fill:#000000;fill-opacity:1;fill-rule:nonzero;stroke:none;stroke-width:0.783566;stroke-linecap:butt;stroke-linejoin:miter;stroke-miterlimit:4;stroke-dasharray:none;stroke-dashoffset:0;stroke-opacity:1"
         id="rect950"
         width="161.20644"
         height="317.73975"
         x="-280.93082"
         y="-83.752052" />
    </clipPath>
    <clipPath
       clipPathUnits="userSpaceOnUse"
       id="clipPath967">
      <rect
         style="fill:#6ecb55;fill-opacity:0.540323;stroke:none;stroke-width:0.405315;stroke-linecap:round;stroke-linejoin:round"
         id="rect969"
         width="84.888893"
         height="172.10544"
         x="81.619461"
         y="-32.789757" />
    </clipPath>
    <mask
       maskUnits="userSpaceOnUse"
       id="mask2042">
      <path
         style="color:#000000;display:inline;overflow:visible;visibility:visible;opacity:1;vector-effect:none;fill:none;fill-opacity:1;fill-rule:nonzero;stroke:#ffffff;stroke-width:0.0626366;stroke-linecap:round;stroke-linejoin:miter;stroke-miterlimit:4;stroke-dasharray:none;stroke-dashoffset:0;stroke-opacity:1;marker:none;enable-background:accumulate"
         d="m 43.127825,7.2620903 c -0.559276,0 -1.00932,0.321203 -1.00932,0.7203695 0,0.3991665 0.450044,0.7203695 1.00932,0.7203695 h 9.481534 c 0.559276,0 1.009317,-0.321203 1.009317,-0.7203695 0,-0.3991665 -0.450041,-0.7203695 -1.009317,-0.7203695 z"
         id="path2044" />
    </mask>
    <clipPath
       clipPathUnits="userSpaceOnUse"
       id="clipPath2353">
      <rect
         style="display:inline;fill:none;fill-opacity:1;stroke:none;stroke-width:0.999999;stroke-linecap:round;stroke-linejoin:round;stroke-miterlimit:4;stroke-dasharray:none;stroke-opacity:1"
         id="rect2355"
         width="355.61673"
         height="728.3255"
         x="2.1916344"
         y="-3.1627369"
         ry="55.641438" />
    </clipPath>
    <clipPath
       clipPathUnits="userSpaceOnUse"
       id="clipPath2353-4">
      <rect
         style="display:inline;fill:none;fill-opacity:1;stroke:none;stroke-width:0.999999;stroke-linecap:round;stroke-linejoin:round;stroke-miterlimit:4;stroke-dasharray:none;stroke-opacity:1"
         id="rect2355-5"
         width="355.61673"
         height="728.3255"
         x="2.1916344"
         y="-3.1627369"
         ry="55.641438" />
    </clipPath>
    <pattern
       patternUnits="userSpaceOnUse"
       width="1.171848"
       height="1.1718804"
       patternTransform="matrix(0.26458334,0,0,0.26458334,-76.445686,-5.7812643)"
       id="pattern2874-7-5">
      <g
         transform="matrix(3.7795274,0,0,3.7795274,288.92857,-26.720982)"
         id="g2781-1-5">
        <rect
           style="opacity:1;vector-effect:none;fill:#212121;fill-opacity:1;fill-rule:nonzero;stroke:none;stroke-width:0.0365544;stroke-linecap:butt;stroke-linejoin:miter;stroke-miterlimit:4;stroke-dasharray:none;stroke-dashoffset:0;stroke-opacity:1"
           id="rect2730-3-8"
           width="0.15502979"
           height="0.15502979"
           x="-76.445686"
           y="7.0699267" />
        <rect
           style="display:inline;opacity:1;vector-effect:none;fill:#212121;fill-opacity:1;fill-rule:nonzero;stroke:none;stroke-width:0.0365544;stroke-linecap:butt;stroke-linejoin:miter;stroke-miterlimit:4;stroke-dasharray:none;stroke-dashoffset:0;stroke-opacity:1"
           id="rect2730-5-8-4"
           width="0.15502979"
           height="0.15502979"
           x="-76.290665"
           y="7.224957" />
        <rect
           style="display:inline;opacity:1;vector-effect:none;fill:#060606;fill-opacity:1;fill-rule:nonzero;stroke:none;stroke-width:0.0365544;stroke-linecap:butt;stroke-linejoin:miter;stroke-miterlimit:4;stroke-dasharray:none;stroke-dashoffset:0;stroke-opacity:1"
           id="rect2730-5-5-1-0"
           width="0.15502979"
           height="0.15502979"
           x="-76.290665"
           y="7.0699267" />
        <rect
           style="display:inline;opacity:1;vector-effect:none;fill:#060606;fill-opacity:1;fill-rule:nonzero;stroke:none;stroke-width:0.0365544;stroke-linecap:butt;stroke-linejoin:miter;stroke-miterlimit:4;stroke-dasharray:none;stroke-dashoffset:0;stroke-opacity:1"
           id="rect2730-5-5-0-1-9"
           width="0.15502979"
           height="0.15502979"
           x="-76.445686"
           y="7.224957" />
      </g>
    </pattern>
    <mask
       maskUnits="userSpaceOnUse"
       id="mask2042-2">
      <path
         style="color:#000000;display:inline;overflow:visible;visibility:visible;opacity:1;vector-effect:none;fill:none;fill-opacity:1;fill-rule:nonzero;stroke:#ffffff;stroke-width:0.0626366;stroke-linecap:round;stroke-linejoin:miter;stroke-miterlimit:4;stroke-dasharray:none;stroke-dashoffset:0;stroke-opacity:1;marker:none;enable-background:accumulate"
         d="m 43.127825,7.2620903 c -0.559276,0 -1.00932,0.321203 -1.00932,0.7203695 0,0.3991665 0.450044,0.7203695 1.00932,0.7203695 h 9.481534 c 0.559276,0 1.009317,-0.321203 1.009317,-0.7203695 0,-0.3991665 -0.450041,-0.7203695 -1.009317,-0.7203695 z"
         id="path2044-8" />
    </mask>
    <clipPath
       clipPathUnits="userSpaceOnUse"
       id="clipPath2898">
      <rect
         style="fill:#404040;fill-opacity:1;stroke:none;stroke-width:3.17312;stroke-linecap:round;stroke-linejoin:round;stroke-miterlimit:4;stroke-dasharray:none;stroke-opacity:1"
         id="rect2900"
         width="47.328953"
         height="95.592796"
         x="-261.86005"
         y="-87.532967" />
    </clipPath>
    <clipPath
       clipPathUnits="userSpaceOnUse"
       id="clipPath2918">
      <rect
         style="fill:#404040;fill-opacity:1;stroke:none;stroke-width:1.87309;stroke-linecap:round;stroke-linejoin:round;stroke-miterlimit:4;stroke-dasharray:none;stroke-opacity:1"
         id="rect2920"
         width="24.396364"
         height="95.37336"
         x="-148.08168"
         y="31.029736" />
    </clipPath>
    <pattern
       patternUnits="userSpaceOnUse"
       width="1.171848"
       height="1.1718804"
       patternTransform="matrix(0.26458334,0,0,0.26458334,-76.445686,-5.7812643)"
       id="pattern2874-7-5-5">
      <g
         transform="matrix(3.7795274,0,0,3.7795274,288.92857,-26.720982)"
         id="g2781-1-5-9">
        <rect
           style="opacity:1;vector-effect:none;fill:#212121;fill-opacity:1;fill-rule:nonzero;stroke:none;stroke-width:0.0365544;stroke-linecap:butt;stroke-linejoin:miter;stroke-miterlimit:4;stroke-dasharray:none;stroke-dashoffset:0;stroke-opacity:1"
           id="rect2730-3-8-4"
           width="0.15502979"
           height="0.15502979"
           x="-76.445686"
           y="7.0699267" />
        <rect
           style="display:inline;opacity:1;vector-effect:none;fill:#212121;fill-opacity:1;fill-rule:nonzero;stroke:none;stroke-width:0.0365544;stroke-linecap:butt;stroke-linejoin:miter;stroke-miterlimit:4;stroke-dasharray:none;stroke-dashoffset:0;stroke-opacity:1"
           id="rect2730-5-8-4-0"
           width="0.15502979"
           height="0.15502979"
           x="-76.290665"
           y="7.224957" />
        <rect
           style="display:inline;opacity:1;vector-effect:none;fill:#060606;fill-opacity:1;fill-rule:nonzero;stroke:none;stroke-width:0.0365544;stroke-linecap:butt;stroke-linejoin:miter;stroke-miterlimit:4;stroke-dasharray:none;stroke-dashoffset:0;stroke-opacity:1"
           id="rect2730-5-5-1-0-5"
           width="0.15502979"
           height="0.15502979"
           x="-76.290665"
           y="7.0699267" />
        <rect
           style="display:inline;opacity:1;vector-effect:none;fill:#060606;fill-opacity:1;fill-rule:nonzero;stroke:none;stroke-width:0.0365544;stroke-linecap:butt;stroke-linejoin:miter;stroke-miterlimit:4;stroke-dasharray:none;stroke-dashoffset:0;stroke-opacity:1"
           id="rect2730-5-5-0-1-9-0"
           width="0.15502979"
           height="0.15502979"
           x="-76.445686"
           y="7.224957" />
      </g>
    </pattern>
    <mask
       maskUnits="userSpaceOnUse"
       id="mask2042-2-4">
      <path
         style="color:#000000;display:inline;overflow:visible;visibility:visible;opacity:1;vector-effect:none;fill:none;fill-opacity:1;fill-rule:nonzero;stroke:#ffffff;stroke-width:0.0626366;stroke-linecap:round;stroke-linejoin:miter;stroke-miterlimit:4;stroke-dasharray:none;stroke-dashoffset:0;stroke-opacity:1;marker:none;enable-background:accumulate"
         d="m 43.127825,7.2620903 c -0.559276,0 -1.00932,0.321203 -1.00932,0.7203695 0,0.3991665 0.450044,0.7203695 1.00932,0.7203695 h 9.481534 c 0.559276,0 1.009317,-0.321203 1.009317,-0.7203695 0,-0.3991665 -0.450041,-0.7203695 -1.009317,-0.7203695 z"
         id="path2044-8-2" />
    </mask>
    <clipPath
       clipPathUnits="userSpaceOnUse"
       id="clipPath2353-4-0">
      <rect
         style="display:inline;fill:none;fill-opacity:1;stroke:none;stroke-width:0.999999;stroke-linecap:round;stroke-linejoin:round;stroke-miterlimit:4;stroke-dasharray:none;stroke-opacity:1"
         id="rect2355-5-9"
         width="355.61673"
         height="728.3255"
         x="2.1916344"
         y="-3.1627369"
         ry="55.641438" />
    </clipPath>
    <filter
       style="color-interpolation-filters:sRGB"
       id="filter2409"
       x="-0.0066088708"
       width="1.0132177"
       y="-0.0032087157"
       height="1.0064174">
      <feGaussianBlur
         stdDeviation="0.96852657"
         id="feGaussianBlur2411" />
    </filter>
    <linearGradient
       xlink:href="#linearGradient2460"
       id="linearGradient2462-4"
       x1="-0.69643712"
       y1="29.932404"
       x2="-0.69643712"
       y2="43.662617"
       gradientUnits="userSpaceOnUse"
       gradientTransform="translate(3.4247285,12.221572)" />
    <linearGradient
       id="linearGradient2460">
      <stop
         style="stop-color:#455d80;stop-opacity:1;"
         offset="0"
         id="stop2456" />
      <stop
         style="stop-color:#19365e;stop-opacity:1"
         offset="0.2"
         id="stop2468" />
      <stop
         style="stop-color:#19365e;stop-opacity:1"
         offset="0.80000001"
         id="stop2466" />
      <stop
         style="stop-color:#455d80;stop-opacity:1"
         offset="1"
         id="stop2458" />
    </linearGradient>
    <linearGradient
       xlink:href="#linearGradient2460"
       id="linearGradient2462-4-3"
       x1="-0.69643712"
       y1="29.932404"
       x2="-0.69643712"
       y2="43.662617"
       gradientUnits="userSpaceOnUse"
       gradientTransform="translate(3.4247285,30.752168)" />
    <linearGradient
       xlink:href="#linearGradient2460"
       id="linearGradient2462"
       x1="-0.69643712"
       y1="29.932404"
       x2="-0.69643712"
       y2="36.839325"
       gradientUnits="userSpaceOnUse"
       gradientTransform="translate(3.4247285,-1.8463642)" />
    <filter
       style="color-interpolation-filters:sRGB"
       id="filter5343"
       x="-0.19227619"
       width="1.3845524"
       y="-0.082464501"
       height="1.164929">
      <feGaussianBlur
         stdDeviation="0.030983682"
         id="feGaussianBlur5345" />
    </filter>
    <filter
       style="color-interpolation-filters:sRGB"
       id="filter5347"
       x="-0.10877967"
       width="1.2175593"
       y="-0.082313925"
       height="1.1646278">
      <feGaussianBlur
         stdDeviation="0.030983682"
         id="feGaussianBlur5349" />
    </filter>
    <pattern
       patternTransform="matrix(0.33424321,0,0,0.33424321,-106.98839,-8.8496532)"
       id="pattern3129"
       xlink:href="#pattern2874-7-5-5-0" />
    <pattern
       patternUnits="userSpaceOnUse"
       width="1.171848"
       height="1.1718804"
       patternTransform="matrix(0.26458334,0,0,0.26458334,-76.445686,-5.7812643)"
       id="pattern2874-7-5-5-0">
      <g
         transform="matrix(3.7795274,0,0,3.7795274,288.92857,-26.720982)"
         id="g2781-1-5-9-0">
        <rect
           style="opacity:1;vector-effect:none;fill:#212121;fill-opacity:1;fill-rule:nonzero;stroke:none;stroke-width:0.0365544;stroke-linecap:butt;stroke-linejoin:miter;stroke-miterlimit:4;stroke-dasharray:none;stroke-dashoffset:0;stroke-opacity:1"
           id="rect2730-3-8-4-2"
           width="0.15502979"
           height="0.15502979"
           x="-76.445686"
           y="7.0699267" />
        <rect
           style="display:inline;opacity:1;vector-effect:none;fill:#212121;fill-opacity:1;fill-rule:nonzero;stroke:none;stroke-width:0.0365544;stroke-linecap:butt;stroke-linejoin:miter;stroke-miterlimit:4;stroke-dasharray:none;stroke-dashoffset:0;stroke-opacity:1"
           id="rect2730-5-8-4-0-7"
           width="0.15502979"
           height="0.15502979"
           x="-76.290665"
           y="7.224957" />
        <rect
           style="display:inline;opacity:1;vector-effect:none;fill:#060606;fill-opacity:1;fill-rule:nonzero;stroke:none;stroke-width:0.0365544;stroke-linecap:butt;stroke-linejoin:miter;stroke-miterlimit:4;stroke-dasharray:none;stroke-dashoffset:0;stroke-opacity:1"
           id="rect2730-5-5-1-0-5-0"
           width="0.15502979"
           height="0.15502979"
           x="-76.290665"
           y="7.0699267" />
        <rect
           style="display:inline;opacity:1;vector-effect:none;fill:#060606;fill-opacity:1;fill-rule:nonzero;stroke:none;stroke-width:0.0365544;stroke-linecap:butt;stroke-linejoin:miter;stroke-miterlimit:4;stroke-dasharray:none;stroke-dashoffset:0;stroke-opacity:1"
           id="rect2730-5-5-0-1-9-0-2"
           width="0.15502979"
           height="0.15502979"
           x="-76.445686"
           y="7.224957" />
      </g>
    </pattern>
    <mask
       maskUnits="userSpaceOnUse"
       id="mask2042-2-4-6">
      <path
         style="color:#000000;display:inline;overflow:visible;visibility:visible;opacity:1;vector-effect:none;fill:none;fill-opacity:1;fill-rule:nonzero;stroke:#ffffff;stroke-width:0.0626366;stroke-linecap:round;stroke-linejoin:miter;stroke-miterlimit:4;stroke-dasharray:none;stroke-dashoffset:0;stroke-opacity:1;marker:none;enable-background:accumulate"
         d="m 43.127825,7.2620903 c -0.559276,0 -1.00932,0.321203 -1.00932,0.7203695 0,0.3991665 0.450044,0.7203695 1.00932,0.7203695 h 9.481534 c 0.559276,0 1.009317,-0.321203 1.009317,-0.7203695 0,-0.3991665 -0.450041,-0.7203695 -1.009317,-0.7203695 z"
         id="path2044-8-2-8" />
    </mask>
    <filter
       style="color-interpolation-filters:sRGB"
       id="filter1214"
       x="-0.09973029"
       width="1.1994606"
       y="-2.5665836"
       height="6.1331673">
      <feGaussianBlur
         stdDeviation="0.49125426"
         id="feGaussianBlur1216" />
    </filter>
    <linearGradient
       xlink:href="#linearGradient2460"
       id="linearGradient2462-4-1"
       x1="-0.69643712"
       y1="29.932404"
       x2="-0.69643712"
       y2="52.201885"
       gradientUnits="userSpaceOnUse"
       gradientTransform="translate(96.561841,17.122752)" />
    <linearGradient
       xlink:href="#linearGradient2650"
       id="linearGradient2652-6"
       x1="64.657043"
       y1="0.37720415"
       x2="64.657043"
       y2="187.59866"
       gradientUnits="userSpaceOnUse"
       gradientTransform="matrix(0.89392297,0,0,0.90105709,10.496843,1.2945708)" />
    <linearGradient
       id="linearGradient2650">
      <stop
         style="stop-color:#404040;stop-opacity:1"
         offset="0"
         id="stop2646" />
      <stop
         style="stop-color:#262626;stop-opacity:1"
         offset="1"
         id="stop2648" />
    </linearGradient>
  </defs>
  <metadata
     id="metadata5">
    <rdf:RDF>
      <cc:Work
         rdf:about="">
        <dc:format>image/svg+xml</dc:format>
        <dc:type
           rdf:resource="http://purl.org/dc/dcmitype/StillImage" />
        <dc:title></dc:title>
      </cc:Work>
    </rdf:RDF>
  </metadata>
  <path
     id="rect2415-6-8"
     style="display:inline;fill:#12284a;fill-opacity:1;stroke:none;stroke-width:1.03188;stroke-linecap:round;stroke-linejoin:round;stroke-miterlimit:4;stroke-dasharray:none;stroke-opacity:1"
     d="m 84.799592,46.775146 h 2.240084 c 0.119327,0 0.2154,0.09607 0.2154,0.215392 V 69.29295 c 0,0.119327 -0.0961,0.215392 -0.2154,0.215392 h -2.240084 c -0.11933,0 -0.215387,-0.09606 -0.215387,-0.215392 V 46.990538 c 0,-0.119327 0.0961,-0.215392 0.215387,-0.215392 z" />
  <path
     id="rect2415-4-9-9"
     style="display:inline;fill:url(#linearGradient2462-4-1);fill-opacity:1;stroke:none;stroke-width:1.03188;stroke-linecap:round;stroke-linejoin:round;stroke-miterlimit:4;stroke-dasharray:none;stroke-opacity:1"
     d="m 84.799592,47.055159 h 2.240084 c 0.119327,0 0.2154,0.09607 0.2154,0.215392 v 21.828542 c 0,0.11933 -0.0961,0.215394 -0.2154,0.215394 h -2.240084 c -0.11933,0 -0.215387,-0.09607 -0.215387,-0.215394 V 47.270551 c 0,-0.119327 0.0961,-0.215392 0.215387,-0.215392 z" />
  <path
     id="rect2415-6"
     style="display:inline;fill:#12284a;fill-opacity:1;stroke:none;stroke-width:1.03188;stroke-linecap:round;stroke-linejoin:round;stroke-miterlimit:4;stroke-dasharray:none;stroke-opacity:1"
     d="M 0.27281845,41.873969 H 2.5128985 c 0.11933,0 0.21539,0.09607 0.21539,0.215392 v 13.773294 c 0,0.119327 -0.0961,0.215392 -0.21539,0.215392 H 0.27281845 c -0.11933,0 -0.21539,-0.09606 -0.21539,-0.215392 V 42.089361 c 0,-0.119329 0.0961,-0.215392 0.21539,-0.215392 z" />
  <path
     id="rect2415-4-9"
     style="display:inline;fill:url(#linearGradient2462-4);fill-opacity:1;stroke:none;stroke-width:1.03188;stroke-linecap:round;stroke-linejoin:round;stroke-miterlimit:4;stroke-dasharray:none;stroke-opacity:1"
     d="M 0.27281845,42.153975 H 2.5128985 c 0.11933,0 0.21539,0.09607 0.21539,0.215398 V 55.6688 c 0,0.119327 -0.0961,0.215392 -0.21539,0.215392 H 0.27281845 c -0.11933,0 -0.21539,-0.09607 -0.21539,-0.215392 V 42.369373 c 0,-0.119328 0.0961,-0.215398 0.21539,-0.215398 z" />
  <path
     id="rect2415-6-0"
     style="display:inline;fill:#12284a;fill-opacity:1;stroke:none;stroke-width:1.03188;stroke-linecap:round;stroke-linejoin:round;stroke-miterlimit:4;stroke-dasharray:none;stroke-opacity:1"
     d="M 0.27281845,60.404561 H 2.5128985 c 0.11933,0 0.21539,0.09607 0.21539,0.215392 v 13.773296 c 0,0.119328 -0.0961,0.215392 -0.21539,0.215392 H 0.27281845 c -0.11933,0 -0.21539,-0.09606 -0.21539,-0.215392 V 60.619953 c 0,-0.119327 0.0961,-0.215392 0.21539,-0.215392 z" />
  <path
     id="rect2415-4-9-6"
     style="display:inline;fill:url(#linearGradient2462-4-3);fill-opacity:1;stroke:none;stroke-width:1.03188;stroke-linecap:round;stroke-linejoin:round;stroke-miterlimit:4;stroke-dasharray:none;stroke-opacity:1"
     d="M 0.27281845,60.684572 H 2.5128985 c 0.11933,0 0.21539,0.09607 0.21539,0.215392 v 13.29943 c 0,0.119328 -0.0961,0.215392 -0.21539,0.215392 H 0.27281845 c -0.11933,0 -0.21539,-0.09607 -0.21539,-0.215392 v -13.29943 c 0,-0.119327 0.0961,-0.215392 0.21539,-0.215392 z" />
  <rect
     style="display:inline;fill:#12284a;fill-opacity:1;stroke:none;stroke-width:1.03188;stroke-linecap:round;stroke-linejoin:round;stroke-miterlimit:4;stroke-dasharray:none;stroke-opacity:1"
     id="rect2415"
     width="2.6708689"
     height="7.3807893"
     x="0.057427708"
     y="27.806028"
     ry="0.21539268" />
  <rect
     style="display:inline;fill:url(#linearGradient2462);fill-opacity:1;stroke:none;stroke-width:1.03188;stroke-linecap:round;stroke-linejoin:round;stroke-miterlimit:4;stroke-dasharray:none;stroke-opacity:1"
     id="rect2415-4"
     width="2.6708689"
     height="6.9069233"
     x="0.057427708"
     y="28.086037"
     ry="0.21539268" />
  <path
     id="rect2163"
     style="display:inline;fill:#455d80;fill-opacity:1;stroke:#12284a;stroke-width:0.264583;stroke-linecap:round;stroke-linejoin:round;stroke-miterlimit:4;stroke-dasharray:none;stroke-opacity:1"
     d="m 15.638095,0.26299083 h 56.036316 c 8.155879,0 14.721798,6.56592227 14.721798,14.72179817 V 159.90481 c 0,8.15588 -6.565919,14.72179 -14.721798,14.72179 H 15.638095 c -8.1558795,0 -14.72180355,-6.56591 -14.72180355,-14.72179 V 14.984789 c 0,-8.1558759 6.56592405,-14.72179817 14.72180355,-14.72179817 z" />
  <path
     id="rect2163-1"
     style="display:inline;fill:#142b4b;fill-opacity:1;stroke:none;stroke-width:0.999999;stroke-linecap:round;stroke-linejoin:round;stroke-miterlimit:4;stroke-dasharray:none;stroke-opacity:1;filter:url(#filter2409)"
     d="m 57.830078,10.077674 c -29.778781,0 -53.689453,23.910672 -53.689453,53.689454 V 611.49859 c 0,29.77878 23.910672,53.6875 53.689453,53.6875 H 269.62689 c 29.77878,0 53.68946,-23.90872 53.68946,-53.6875 V 63.767128 c 0,-29.778782 -23.91068,-53.689454 -53.68946,-53.689454 z"
     transform="matrix(0.26458334,0,0,0.26458334,0.33642245,-1.8869792)"
     clip-path="url(#clipPath2353-4-0)" />
  <path
     id="rect2172"
     style="display:inline;fill:#445b75;fill-opacity:1;stroke:none;stroke-width:0.264583;stroke-linecap:round;stroke-linejoin:round;stroke-miterlimit:4;stroke-dasharray:none;stroke-opacity:1"
     d="M 65.299885,0.13086583 V 3.2955308 h 2.152837 V 0.13086583 Z M 0.78393845,16.36927 v 2.152841 H 86.528562 V 16.36927 Z m 0,139.35765 v 2.15233 H 86.528562 v -2.15233 z m 19.07583955,16.3069 v 2.72489 h 2.15284 v -2.72489 z" />
  <path
     id="rect3540"
     style="display:inline;opacity:1;vector-effect:none;fill:#000000;fill-opacity:1;fill-rule:nonzero;stroke:#434343;stroke-width:0.132292;stroke-linecap:butt;stroke-linejoin:miter;stroke-miterlimit:4;stroke-dasharray:none;stroke-dashoffset:0;stroke-opacity:1"
     d="m 15.885742,1.4770038 h 55.541016 c 7.688594,0 13.878331,6.1897344 13.878331,13.8783292 V 159.53425 c 0,7.6886 -6.189737,13.87833 -13.878331,13.87833 H 15.885742 c -7.6885935,0 -13.8783285,-6.18973 -13.8783285,-13.87833 V 15.355333 c 0,-7.6885948 6.189735,-13.8783292 13.8783285,-13.8783292 z" />
  <g
     id="g2170"
     transform="translate(99.656692,1.8418358)"
     style="display:inline">
    <circle
       style="color:#000000;display:inline;overflow:visible;visibility:visible;opacity:1;vector-effect:none;fill:#161616;fill-opacity:1;fill-rule:nonzero;stroke:none;stroke-width:0.0343694;stroke-linecap:round;stroke-linejoin:miter;stroke-miterlimit:4;stroke-dasharray:none;stroke-dashoffset:0;stroke-opacity:1;marker:none;enable-background:accumulate"
       id="path5263"
       cx="-46.563324"
       cy="5.9794521"
       r="1.7467661" />
    <circle
       style="color:#000000;display:inline;overflow:visible;visibility:visible;opacity:1;vector-effect:none;fill:#0a0d13;fill-opacity:1;fill-rule:nonzero;stroke:none;stroke-width:0.0264583;stroke-linecap:round;stroke-linejoin:miter;stroke-miterlimit:4;stroke-dasharray:none;stroke-dashoffset:0;stroke-opacity:1;marker:none;enable-background:accumulate"
       id="path5265"
       cx="-46.563324"
       cy="5.9794521"
       r="1.0774301" />
    <circle
       style="color:#000000;display:inline;overflow:visible;visibility:visible;opacity:1;vector-effect:none;fill:#091427;fill-opacity:1;fill-rule:nonzero;stroke:none;stroke-width:0.0264583;stroke-linecap:round;stroke-linejoin:miter;stroke-miterlimit:4;stroke-dasharray:none;stroke-dashoffset:0;stroke-opacity:1;marker:none;enable-background:accumulate"
       id="path5267"
       cx="-46.563324"
       cy="5.9794521"
       r="0.82091707" />
    <path
       style="display:inline;fill:#235a91;fill-opacity:0.556075;fill-rule:evenodd;stroke:none;stroke-width:0.0264583;stroke-linecap:butt;stroke-linejoin:miter;stroke-miterlimit:4;stroke-dasharray:none;stroke-opacity:1;filter:url(#filter5343)"
       d="m -47.128431,5.4302366 c -0.09735,0.010246 -0.235679,0.1588277 -0.245928,0.4508659 -0.01024,0.292038 0.117842,0.4508656 0.189571,0.4508656 0.07173,0 0.368889,-0.4252483 0.05635,-0.9017315 z"
       id="path5271" />
    <path
       style="display:inline;fill:#235a91;fill-opacity:0.556075;fill-rule:evenodd;stroke:none;stroke-width:0.0264583;stroke-linecap:butt;stroke-linejoin:miter;stroke-miterlimit:4;stroke-dasharray:none;stroke-opacity:1;filter:url(#filter5347)"
       d="m -46.429328,5.3279691 c -0.153553,0.047247 -0.183083,0.2952938 -0.177178,0.4370348 0.0059,0.1417412 0.206706,0.5138116 0.448847,0.4311293 0.242142,-0.082682 0.283483,-0.3897882 0.183084,-0.5964939 -0.100401,-0.2067057 -0.283483,-0.3543525 -0.454753,-0.2716702 z"
       id="path5273" />
  </g>
  <g
     id="g2051"
     transform="matrix(0.98624005,0,0,0.98624005,-3.2566145,-0.68319317)"
     style="display:inline">
    <rect
       style="color:#000000;display:inline;overflow:visible;visibility:visible;opacity:1;vector-effect:none;fill:url(#pattern3129);fill-opacity:1;fill-rule:nonzero;stroke:none;stroke-width:0.334243;stroke-linecap:round;stroke-linejoin:miter;stroke-miterlimit:4;stroke-dasharray:none;stroke-dashoffset:0;stroke-opacity:1;marker:none;enable-background:accumulate"
       id="rect5261"
       width="10.362609"
       height="1.8204322"
       x="42.674976"
       y="7.627502"
       ry="0.91021591" />
    <path
       style="color:#000000;display:inline;overflow:visible;visibility:visible;opacity:1;vector-effect:none;fill:none;fill-opacity:1;fill-rule:nonzero;stroke:#292929;stroke-width:0.0668487;stroke-linecap:round;stroke-linejoin:miter;stroke-miterlimit:4;stroke-dasharray:none;stroke-dashoffset:0;stroke-opacity:1;marker:none;enable-background:accumulate"
       d="m 43.58519,7.6277645 c -0.504259,0 -0.91003,0.4057697 -0.91003,0.9100294 0,0.5042587 0.405771,0.9100287 0.91003,0.9100287 h 8.548817 c 0.504259,0 0.91003,-0.40577 0.91003,-0.9100287 0,-0.5042597 -0.405771,-0.9100294 -0.91003,-0.9100294 z"
       id="rect5261-0" />
    <g
       id="g1041"
       mask="url(#mask2042-2-4-6)"
       style="display:inline;filter:url(#filter1214)"
       transform="matrix(0.90162812,0,0,1.2632814,4.6999299,-1.5462883)"
       clip-path="none">
      <path
         id="path999"
         d="M 42.25606,7.9824588 A 0.22968481,0.22968481 0 0 1 42.026375,8.2121435 0.22968481,0.22968481 0 0 1 41.79669,7.9824588 0.22968481,0.22968481 0 0 1 42.026375,7.752774 0.22968481,0.22968481 0 0 1 42.25606,7.9824588 Z"
         style="opacity:1;vector-effect:none;fill:#ffffff;fill-opacity:1;fill-rule:nonzero;stroke:none;stroke-width:0.0319826;stroke-linecap:butt;stroke-linejoin:miter;stroke-miterlimit:4;stroke-dasharray:none;stroke-dashoffset:0;stroke-opacity:1" />
      <path
         id="path999-2"
         d="M 53.618677,7.9824588 A 0.22968481,0.22968481 0 0 1 53.388992,8.2121435 0.22968481,0.22968481 0 0 1 53.159307,7.9824588 0.22968481,0.22968481 0 0 1 53.388992,7.752774 0.22968481,0.22968481 0 0 1 53.618677,7.9824588 Z"
         style="display:inline;opacity:1;vector-effect:none;fill:#ffffff;fill-opacity:1;fill-rule:nonzero;stroke:none;stroke-width:0.0319826;stroke-linecap:butt;stroke-linejoin:miter;stroke-miterlimit:4;stroke-dasharray:none;stroke-dashoffset:0;stroke-opacity:1" />
    </g>
  </g>
  <path
     id="path998-5"
     style="display:inline;opacity:1;fill:url(#linearGradient2652-6);fill-opacity:1;stroke:none;stroke-width:0.237459;stroke-linecap:butt;stroke-linejoin:miter;stroke-miterlimit:4;stroke-dasharray:none;stroke-opacity:1"
     d="M 15.381498,4.3860298 C 9.4151035,4.3860298 4.8395055,10.5841 4.8395055,16.29228 v 142.13293 c 0,2.64409 0.98335,5.39185 2.630331,7.58144 l 0.0021,0.007 0.0041,0.002 c 1.90846,2.53287 4.7063695,4.31602 7.9054605,4.31602 h 56.549516 c 3.19909,0 5.997001,-1.78315 7.905459,-4.31602 l 0.0041,-0.002 0.0021,-0.007 c 1.646981,-2.1896 2.630331,-4.93735 2.630331,-7.58144 V 16.29228 c 0,-5.70818 -4.575598,-11.9062502 -10.541992,-11.9062502 h -3.06028 c -1.052885,0 -1.597834,0.109226 -1.597834,1.7926554 0,2.4309008 -1.433872,5.3826168 -5.137155,5.3826168 h -36.95902 c -3.703284,0 -5.137155,-2.951716 -5.137155,-5.3826168 0,-1.6834294 -0.544949,-1.7926554 -1.597835,-1.7926554 z" />
</svg>
