<svg width="393" height="791" version="1.1" viewBox="0 0 103.98 209.29" xmlns="http://www.w3.org/2000/svg" xmlns:xlink="http://www.w3.org/1999/xlink">
<defs>
<pattern id="pattern956" patternTransform="matrix(.26458 0 0 .26458 -72.212 -24.236)" xlink:href="#pattern2874"/>
<linearGradient id="linearGradient5830">
<stop stop-color="#4f4f4f" stop-opacity=".13084" offset="0"/>
<stop stop-color="#4f4f4f" offset=".07"/>
<stop stop-color="#4f4f4f" stop-opacity=".95327" offset=".937"/>
<stop stop-color="#4f4f4f" stop-opacity="0" offset="1"/>
</linearGradient>
<linearGradient id="linearGradient5220">
<stop stop-color="#404040" offset="0"/>
<stop stop-color="#838383" offset=".6"/>
<stop stop-color="#a7a7a7" offset="1"/>
</linearGradient>
<clipPath id="clipPath4960">
<path d="m56.734 2.0137c-29.679 0-53.572 23.894-53.572 53.572v610.44c0 29.679 23.894 53.572 53.572 53.572h246.53c29.679 0 53.572-23.894 53.572-53.572v-610.44c0-29.679-23.894-53.572-53.572-53.572zm-1.4238 3.9785h249.38c26.582 0 47.982 21.398 47.982 47.98v614.24c0 26.582-21.4 47.982-47.982 47.982h-249.38c-26.582 0-47.982-21.4-47.982-47.982v-614.24c0-26.582 21.4-47.98 47.982-47.98z" color="#000000" fill="#ebebeb"/>
</clipPath>
<filter id="filter4996" x="-.0017458" y="-.0009142" width="1.0035" height="1.0018" color-interpolation-filters="sRGB">
<feGaussianBlur stdDeviation="0.26620632"/>
</filter>
<linearGradient id="linearGradient5226" x1="340.65" x2="349.57" y1="361.12" y2="361.12" gradientTransform="matrix(.26458 0 0 .26458 8.7313 0)" gradientUnits="userSpaceOnUse" xlink:href="#linearGradient5220"/>
<linearGradient id="linearGradient5226-6" x1="340.65" x2="349.57" y1="361.12" y2="361.12" gradientTransform="matrix(-.26458 0 0 .26458 95.476 7.5449e-7)" gradientUnits="userSpaceOnUse" xlink:href="#linearGradient5220"/>
<filter id="filter5343" x="-.19228" y="-.082465" width="1.3846" height="1.1649" color-interpolation-filters="sRGB">
<feGaussianBlur stdDeviation="0.030983682"/>
</filter>
<filter id="filter5347" x="-.10878" y="-.082314" width="1.2176" height="1.1646" color-interpolation-filters="sRGB">
<feGaussianBlur stdDeviation="0.030983682"/>
</filter>
<linearGradient id="linearGradient5832" x1="8.3153" x2="95.955" y1="8.4801" y2="8.4801" gradientTransform="translate(.066817 -21.061)" gradientUnits="userSpaceOnUse" xlink:href="#linearGradient5830"/>
<linearGradient id="linearGradient5832-3" x1="8.3153" x2="95.666" y1="8.4801" y2="8.4801" gradientTransform="matrix(1 0 0 -1 .066817 193.83)" gradientUnits="userSpaceOnUse" xlink:href="#linearGradient5830"/>
<mask id="mask1062" maskUnits="userSpaceOnUse">
<path d="m42.747 7.2621c-0.39917 0-0.72037 0.3212-0.72037 0.72037 0 0.39917 0.3212 0.72037 0.72037 0.72037h9.9219c0.39917 0 0.72037-0.3212 0.72037-0.72037 0-0.39917-0.3212-0.72037-0.72037-0.72037z" color="#000000" fill="none" stroke="#fff" stroke-linecap="round" stroke-width=".052917"/>
</mask>
<filter id="filter1214" x="-.09973" y="-2.5666" width="1.1995" height="6.1332" color-interpolation-filters="sRGB">
<feGaussianBlur stdDeviation="0.49125426"/>
</filter>
<pattern id="pattern2874" width="1.171848" height="1.1718804" patternTransform="matrix(.26458 0 0 .26458 -76.446 -5.7813)" patternUnits="userSpaceOnUse">
<g transform="matrix(3.7795 0 0 3.7795 288.93 -26.721)">
<rect x="-76.446" y="7.0699" width=".15503" height=".15503" fill="#212121"/>
<rect x="-76.291" y="7.225" width=".15503" height=".15503" fill="#212121"/>
<rect x="-76.291" y="7.0699" width=".15503" height=".15503" fill="#060606"/>
<rect x="-76.446" y="7.225" width=".15503" height=".15503" fill="#060606"/>
</g>
</pattern>
<linearGradient id="linearGradient2973" x1="-41.981" x2="155.56" y1="95.48" y2="95.48" gradientTransform="matrix(0 3.7795 -3.7795 0 540.87 180.12)" gradientUnits="userSpaceOnUse">
<stop stop-color="#343434" offset="0"/>
<stop stop-color="#171717" offset="1"/>
</linearGradient>
<clipPath id="clipPath4960-8">
<path d="m56.734 2.0137c-29.679 0-53.572 23.894-53.572 53.572v610.44c0 29.679 23.894 53.572 53.572 53.572h246.53c29.679 0 53.572-23.894 53.572-53.572v-610.44c0-29.679-23.894-53.572-53.572-53.572zm-1.4238 3.9785h249.38c26.582 0 47.982 21.398 47.982 47.98v614.24c0 26.582-21.4 47.982-47.982 47.982h-249.38c-26.582 0-47.982-21.4-47.982-47.982v-614.24c0-26.582 21.4-47.98 47.982-47.98z" color="#000000" fill="#ebebeb"/>
</clipPath>
<filter id="filter4996-32" x="-.0017458" y="-.0009142" width="1.0035" height="1.0018" color-interpolation-filters="sRGB">
<feGaussianBlur stdDeviation="0.26620632"/>
</filter>
<clipPath id="clipPath4960-8-1">
<path d="m56.734 2.0137c-29.679 0-53.572 23.894-53.572 53.572v610.44c0 29.679 23.894 53.572 53.572 53.572h246.53c29.679 0 53.572-23.894 53.572-53.572v-610.44c0-29.679-23.894-53.572-53.572-53.572zm-1.4238 3.9785h249.38c26.582 0 47.982 21.398 47.982 47.98v614.24c0 26.582-21.4 47.982-47.982 47.982h-249.38c-26.582 0-47.982-21.4-47.982-47.982v-614.24c0-26.582 21.4-47.98 47.982-47.98z" color="#000000" fill="#ebebeb"/>
</clipPath>
<filter id="filter4996-32-9" x="-.0017458" y="-.0009142" width="1.0035" height="1.0018" color-interpolation-filters="sRGB">
<feGaussianBlur stdDeviation="0.26620632"/>
</filter>
<clipPath id="clipPath4960-9">
<path d="m56.734 2.0137c-29.679 0-53.572 23.894-53.572 53.572v610.44c0 29.679 23.894 53.572 53.572 53.572h246.53c29.679 0 53.572-23.894 53.572-53.572v-610.44c0-29.679-23.894-53.572-53.572-53.572zm-1.4238 3.9785h249.38c26.582 0 47.982 21.398 47.982 47.98v614.24c0 26.582-21.4 47.982-47.982 47.982h-249.38c-26.582 0-47.982-21.4-47.982-47.982v-614.24c0-26.582 21.4-47.98 47.982-47.98z" color="#000000" fill="#ebebeb"/>
</clipPath>
<filter id="filter4996-9" x="-.0017458" y="-.0009142" width="1.0035" height="1.0018" color-interpolation-filters="sRGB">
<feGaussianBlur stdDeviation="0.26620632"/>
</filter>
<linearGradient id="linearGradient3427">
<stop stop-color="#d9bba3" stop-opacity=".27451" offset="0"/>
<stop stop-color="#d9bba3" offset=".05"/>
<stop stop-color="#d9bba3" offset=".95"/>
<stop stop-color="#d9bba3" stop-opacity=".27451" offset="1"/>
</linearGradient>
<linearGradient id="linearGradient5475-5" x1="-13.206" x2="-13.206" y1="26.259" y2="32.871" gradientUnits="userSpaceOnUse" xlink:href="#linearGradient3427"/>
<clipPath id="clipPath5401-9-2-6">
<rect x="-13.878" y="25.857" width="4.3765" height="7.4167" ry=".45102" color="#000000"/>
</clipPath>
<filter id="filter5465-73" x="-.32506" y="-.025913" width="1.6501" height="1.0518" color-interpolation-filters="sRGB">
<feGaussianBlur stdDeviation="0.07139097"/>
</filter>
<linearGradient id="linearGradient2875" x1="-13.206" x2="-13.206" y1="26.259" y2="39.269" gradientTransform="translate(13.878 13.831)" gradientUnits="userSpaceOnUse" xlink:href="#linearGradient3427"/>
<clipPath id="clipPath5589-3-6-2">
<path d="m0.45114 39.688c-0.24986 0-0.45114 0.20076-0.45114 0.45062v12.913c0 0.24986 0.20127 0.45114 0.45114 0.45114h3.4742c0.24986 0 0.45114-0.20127 0.45114-0.45114v-12.913c0-0.24986-0.20127-0.45062-0.45114-0.45062z" color="#000000"/>
</clipPath>
<filter id="filter5465-7-7" x="-.32506" y="-.025913" width="1.6501" height="1.0518" color-interpolation-filters="sRGB">
<feGaussianBlur stdDeviation="0.07139097"/>
</filter>
<clipPath id="clipPath5589-7-8-0-0">
<path d="m0.45114 39.688c-0.24986 0-0.45114 0.20076-0.45114 0.45062v12.913c0 0.24986 0.20127 0.45114 0.45114 0.45114h3.4742c0.24986 0 0.45114-0.20127 0.45114-0.45114v-12.913c0-0.24986-0.20127-0.45062-0.45114-0.45062z" color="#000000"/>
</clipPath>
<filter id="filter5465-7-8-2" x="-.32506" y="-.025913" width="1.6501" height="1.0518" color-interpolation-filters="sRGB">
<feGaussianBlur stdDeviation="0.07139097"/>
</filter>
<linearGradient id="linearGradient5697-7" x1="-13.206" x2="-13.206" y1="26.259" y2="47.301" gradientTransform="translate(13.878 13.831)" gradientUnits="userSpaceOnUse" xlink:href="#linearGradient3427"/>
<clipPath id="clipPath5738-4-9-6-4">
<path d="m0.45114 39.688c-0.24986 0-0.45113 0.20076-0.45113 0.45062v20.945c0 0.24986 0.20127 0.45114 0.45113 0.45114h3.4742c0.24986 0 0.45114-0.20127 0.45114-0.45114v-20.945c0-0.24986-0.20127-0.45062-0.45114-0.45062z" color="#000000"/>
</clipPath>
<filter id="filter5465-7-2-7" x="-.32506" y="-.025913" width="1.6501" height="1.0518" color-interpolation-filters="sRGB">
<feGaussianBlur stdDeviation="0.07139097"/>
</filter>
</defs>
<g transform="translate(0 18.256)">
<g transform="translate(-113.49 -9.1938)">
<path d="m217.02 34.945c0.24986 0 0.45113 0.20076 0.45113 0.45062v20.945c0 0.24986-0.20127 0.45114-0.45113 0.45114h-3.4742c-0.24986 0-0.45113-0.20127-0.45113-0.45114v-20.945c0-0.24986 0.20127-0.45062 0.45113-0.45062z" color="#000000" fill="#634731"/>
<path transform="matrix(-1 0 0 1 217.47 -4.743)" d="m0.54703 40.09c-0.22275 0-0.40204 0.17929-0.40204 0.40204v20.238c0 0.22275 0.17929 0.40204 0.40204 0.40204h0.12506v-21.042z" clip-path="url(#clipPath5738-4-9-6-4)" color="#000000" fill="url(#linearGradient5697-7)" filter="url(#filter5465-7-2-7)"/>
</g>
<g transform="translate(-115.81 -9.0602)">
<rect x="115.81" y="16.462" width="4.3765" height="7.4167" ry=".45102" color="#000000" fill="#634731"/>
<path transform="translate(129.69 -9.395)" d="m-13.331 26.259c-0.22275 0-0.40204 0.17929-0.40204 0.40204v5.8079c0 0.22275 0.17929 0.40204 0.40204 0.40204h0.12506v-6.612z" clip-path="url(#clipPath5401-9-2-6)" color="#000000" fill="url(#linearGradient5475-5)" filter="url(#filter5465-73)"/>
<path d="m116.26 30.293c-0.24987 0-0.45114 0.20076-0.45114 0.45062v12.913c0 0.24986 0.20127 0.45114 0.45114 0.45114h3.4742c0.24987 0 0.45114-0.20127 0.45114-0.45114v-12.913c0-0.24986-0.20127-0.45062-0.45114-0.45062z" color="#000000" fill="#634731"/>
<path transform="translate(115.81 -9.395)" d="m0.54703 40.09c-0.22275 0-0.40204 0.17929-0.40204 0.40204v12.206c0 0.22275 0.17929 0.40204 0.40204 0.40204h0.12506v-13.01z" clip-path="url(#clipPath5589-3-6-2)" color="#000000" fill="url(#linearGradient2875)" filter="url(#filter5465-7-7)"/>
<path d="m116.26 47.666c-0.24987 0-0.45114 0.20076-0.45114 0.45062v12.913c0 0.24986 0.20127 0.45114 0.45114 0.45114h3.4742c0.24987 0 0.45114-0.20127 0.45114-0.45114v-12.913c0-0.24986-0.20127-0.45062-0.45114-0.45062z" color="#000000" fill="#634731"/>
<path transform="translate(115.81 7.9775)" d="m0.54703 40.09c-0.22275 0-0.40204 0.17929-0.40204 0.40204v12.206c0 0.22275 0.17929 0.40204 0.40204 0.40204h0.12506v-13.01z" clip-path="url(#clipPath5589-7-8-0-0)" color="#000000" fill="url(#linearGradient2875)" filter="url(#filter5465-7-8-2)"/>
</g>
<g>
<g>
<path transform="matrix(.26458 0 0 .26458 0 -18.256)" d="m54.74 0c-29.24 0-52.779 23.539-52.779 52.779v70.762 543.92 70.762c0 29.24 23.539 52.781 52.779 52.781h33 73.963 16.5l2.1856-3.0977h32.221l2.1875 3.0977h16.5 73.963 33c29.24 0 52.779-23.541 52.779-52.781v-70.762-543.92-70.762c0-29.24-23.539-52.779-52.779-52.779h-33-217.52z" color="#000000" fill="#3f230d"/>
<rect x="1.4044" y="-17.472" width="101.43" height="207.86" ry="14.032"/>
<g>
<path d="m0.83665 1.371h1.1022v-1.3028h-1.1022z" color="#000000" fill="#b19884"/>
<path d="m0.83665 171.47h1.1022v-170.1h-1.1022z" color="#000000" fill="#e2c8b3"/>
<path d="m0.83665 172.77h1.1022v-1.3033h-1.1022z" color="#000000" fill="#b19884"/>
<path d="m103.18 172.78h-1.1022v4.3594c0 7.0332-5.6976 12.684-12.731 12.684h-74.713c-7.0332 0-12.695-5.6622-12.695-12.695v-4.3594h-1.1022v3.7827c0 7.8524 6.3219 14.174 14.174 14.174h73.959c7.8525 0 14.21-6.3106 14.21-14.163z" color="#000000" fill="#e2c8b3"/>
<path d="m15.011-17.856c-7.8524-0.001254-14.174 6.3219-14.174 14.174v3.7496h1.1022v-4.1765c0-7.0332 5.6622-12.696 12.695-12.695l74.748 0.01181c7.0332 0.0011 12.695 5.6616 12.695 12.695v4.1765h1.1022v-3.7496c0-7.8525-6.3219-14.173-14.174-14.174z" color="#000000" fill="#e2c8b3"/>
</g>
</g>
<path transform="matrix(.26458 0 0 .26458 0 -18.455)" d="m37.924 11.58c-6.5868-0.16785-19.141 1.8259-32.031 16.312-18.75 21.071-1.9648 8.3926-1.9648 8.3926s11.518-17.856 27.59-20.178c16.071-2.3214 11.16-3.9297 11.16-3.9297s-1.7599-0.52136-4.7539-0.59766z" clip-path="url(#clipPath4960)" fill="#563b24" fill-rule="evenodd" filter="url(#filter4996)"/>
</g>
<g transform="translate(-.11323 -18.455)">
<path d="m94.874 4.0649c-0.31077-0.030774-0.16407 0.27905 0.5333 0.92501 2.3009 2.1313 3.7295 5.216 3.7295 8.6496v81.908l6e-6 100.63c0 3.4336-1.4286 6.5184-3.7295 8.6496-0.69737 0.64596-0.84407 0.95581-0.5333 0.925 0.18646-0.0185 0.53768-0.15949 1.033-0.42374 3.3627-1.794 5.3154-5.6643 5.3154-9.7751l-1e-5 -100.01v-81.283c0-4.1108-1.9527-7.9811-5.3154-9.7751-0.49533-0.26425-0.84655-0.40528-1.033-0.42375z" color="#000000" fill="url(#linearGradient5226)"/>
<path d="m9.3334 4.0649c0.31077-0.03077 0.16407 0.27905-0.5333 0.92501-2.3009 2.1312-3.7295 5.216-3.7295 8.6496v81.908l-3e-7 100.63c-1e-7 3.4336 1.4286 6.5184 3.7295 8.6496 0.69737 0.64596 0.84407 0.9558 0.5333 0.925-0.18646-0.0185-0.53768-0.15949-1.033-0.42374-3.3627-1.794-5.3154-5.6643-5.3154-9.7751l3e-7 -100.01v-81.283c0-4.1108 1.9527-7.9811 5.3154-9.7751 0.49533-0.26425 0.84655-0.40528 1.033-0.42375z" color="#000000" fill="url(#linearGradient5226-6)"/>
</g>
<g>
<rect x="46.259" y="-11.193" width="11.363" height="1.441" ry=".72052" color="#000000" fill="url(#pattern956)"/>
<circle cx="62.148" cy="-10.565" r="1.3447" color="#000000" fill="#161616"/>
<circle cx="62.148" cy="-10.565" r="1.0774" color="#000000" fill="#0a0d13"/>
<circle cx="62.148" cy="-10.565" r=".82092" color="#000000" fill="#091427"/>
</g>
<path d="m61.583-11.115c-0.09735 0.01025-0.23568 0.15883-0.24593 0.45087-0.01024 0.29204 0.11784 0.45087 0.18957 0.45087 0.07173 0 0.36889-0.42525 0.05635-0.90173z" fill="#235a91" fill-opacity=".55607" fill-rule="evenodd" filter="url(#filter5343)"/>
<path d="m62.282-11.217c-0.15355 0.04725-0.18308 0.29529-0.17718 0.43704 0.0059 0.14174 0.20671 0.51381 0.44885 0.43113 0.24214-0.08268 0.28348-0.38979 0.18308-0.59649-0.1004-0.20671-0.28348-0.35435-0.45475-0.27167z" fill="#235a91" fill-opacity=".55607" fill-rule="evenodd" filter="url(#filter5347)"/>
<path d="m14.624-15.878c-2.2986 0-4.4368 0.6574-6.242 1.7921v1.5048c1.7204-1.1285 3.78-1.7854 6.0002-1.7854h26.412 13.796l35.204 0.11921c2.2201 0.0075 4.2798 0.65696 6.0002 1.7854v-1.5048c-1.8052-1.1347-3.9434-1.7843-6.242-1.7921l-34.963-0.11921h-13.796z" color="#000000" fill="url(#linearGradient5832)"/>
<path d="m14.624 188.65c-2.2986 0-4.4368-0.65741-6.242-1.7921v-1.5048c1.7204 1.1285 3.78 1.7854 6.0002 1.7854h26.412 13.796 35.143c2.2201 0 4.2798-0.65696 6.0002-1.7854v1.5048c-1.8052 1.1347-3.9434 1.7921-6.242 1.7921h-34.901-13.796z" color="#000000" fill="url(#linearGradient5832-3)"/>
<g fill="#fff" fill-opacity=".065421">
<circle cx="33.325" cy="-10.565" r=".89769"/>
<circle cx="69.245" cy="-10.565" r="1.6064"/>
<circle cx="40.873" cy="-10.565" r="1.3229"/>
</g>
<path d="m46.98-11.193c-0.39917 0-0.72037 0.3212-0.72037 0.72037 0 0.39917 0.3212 0.72037 0.72037 0.72037h9.9219c0.39917 0 0.72037-0.3212 0.72037-0.72037 0-0.39917-0.3212-0.72037-0.72037-0.72037z" color="#000000" fill="none" stroke="#292929" stroke-linecap="round" stroke-width=".052917"/>
<g transform="translate(4.2332 -18.455)" fill="#fff" filter="url(#filter1214)" mask="url(#mask1062)">
<path d="m42.256 7.9825a0.22968 0.22968 0 0 1-0.22968 0.22968 0.22968 0.22968 0 0 1-0.22968-0.22968 0.22968 0.22968 0 0 1 0.22968-0.22968 0.22968 0.22968 0 0 1 0.22968 0.22968z"/>
<path d="m53.619 7.9825a0.22968 0.22968 0 0 1-0.22968 0.22968 0.22968 0.22968 0 0 1-0.22968-0.22968 0.22968 0.22968 0 0 1 0.22968-0.22968 0.22968 0.22968 0 0 1 0.22968 0.22968z"/>
</g>
<g>
<path d="m85.3-16.803v-1.0526h-1.3028v1.0526z" color="#000000" fill="#b19884"/>
<path d="m18.681 189.83v0.90227h1.3028v-0.90227z" color="#000000" fill="#b19884"/>
<path transform="matrix(.26458 0 0 .26458 0 -18.256)" d="m55.779 21.449c-17.768 0-32.072 14.304-32.072 32.072l2e-6 683.96c0 17.768 14.304 32.072 32.072 32.072h281.44c17.768 0 32.072-14.304 32.072-32.072v-683.96c0-17.768-14.304-32.072-32.072-32.072h-47.873c-2.9587 2.34e-4 -5.3572 2.3987-5.3574 5.3574v2.4668c0 9.6535-7.7703 17.426-17.424 17.426h-140.13c-9.6535 0-17.424-7.7723-17.424-17.426v-2.4668c-2.3e-4 -2.9587-2.3987-5.3572-5.3574-5.3574z" color="#000000" fill="url(#linearGradient2973)"/>
<path d="m102.08 171.48h1.1022v-170.1h-1.1022z" color="#000000" fill="#e2c8b3"/>
<path d="m102.08 1.3828h1.1022v-1.3028h-1.1022z" color="#000000" fill="#b19884"/>
<path d="m102.08 172.78h1.1022v-1.3028h-1.1022z" color="#000000" fill="#b19884"/>
</g>
<g fill="#563b24" fill-rule="evenodd">
<path transform="matrix(-.26458 0 0 .26458 104.02 -18.455)" d="m37.924 11.58c-6.5868-0.16785-19.141 1.8259-32.031 16.312-18.75 21.071-1.9648 8.3926-1.9648 8.3926s11.518-17.856 27.59-20.178c16.071-2.3214 11.16-3.9297 11.16-3.9297s-1.7599-0.52136-4.7539-0.59766z" clip-path="url(#clipPath4960-8)" filter="url(#filter4996-32)"/>
<path transform="matrix(-.26458 0 0 -.26458 104.02 191.31)" d="m37.924 11.58c-6.5868-0.16785-19.141 1.8259-32.031 16.312-18.75 21.071-1.9648 8.3926-1.9648 8.3926s11.518-17.856 27.59-20.178c16.071-2.3214 11.16-3.9297 11.16-3.9297s-1.7599-0.52136-4.7539-0.59766z" clip-path="url(#clipPath4960-9)" filter="url(#filter4996-9)"/>
<path transform="matrix(.26458 0 0 -.26458 8e-6 191.31)" d="m37.924 11.58c-6.5868-0.16785-19.141 1.8259-32.031 16.312-18.75 21.071-1.9648 8.3926-1.9648 8.3926s11.518-17.856 27.59-20.178c16.071-2.3214 11.16-3.9297 11.16-3.9297s-1.7599-0.52136-4.7539-0.59766z" clip-path="url(#clipPath4960-8-1)" filter="url(#filter4996-32-9)"/>
</g>
</g>
</svg>
